<svg width="31" height="47" viewBox="0 0 31 47" fill="none" xmlns="http://www.w3.org/2000/svg">
<path d="M14.2108 0.958939C11.4801 2.05938 10.1759 5.31995 11.2763 8.41749C12.4175 11.7596 12.0099 12.1264 8.05648 11.0667C3.98077 9.96626 3.16562 10.9852 5.8556 13.9197C9.5645 17.9139 10.7465 25.1279 8.66784 31.0785C7.52664 34.339 5.65181 35.3987 5.65181 32.831C5.65181 29.5297 0.720196 29.7742 0.0680815 33.1571C-0.665547 36.866 4.67364 38.8223 9.15692 36.4584C12.7436 34.6243 17.879 35.1949 17.879 37.4366C17.879 40.6564 16.1264 43.3871 14.0885 43.3871C12.0099 43.3871 11.6431 42.6127 13.1104 41.1455C14.4961 39.7597 13.3142 37.6811 11.154 37.6811C7.32285 37.6811 5.77408 42.6127 8.79011 45.3027C13.5995 49.6637 22.7698 45.0174 22.7698 38.211C22.7698 36.6214 23.2997 36.0508 25.2152 35.6433C30.3506 34.5021 32.7146 26.7174 29.2094 22.4787C28.5981 21.7451 28.1905 20.2371 28.3535 19.1366C28.7204 16.2836 24.8892 12.4932 20.9357 11.8818C16.6562 11.189 14.1701 4.79011 17.7567 3.60815C18.6126 3.32285 18.6126 3.56739 17.7974 4.87162C15.8411 8.00992 19.1832 10.7814 21.7916 8.17295C25.419 4.54556 19.4277 -1.16043 14.2108 0.958939ZM15.7188 16.6912C16.7785 20.6039 15.4743 21.0522 14.0478 17.3025C13.3142 15.387 13.3549 14.8571 14.1701 14.8571C14.7814 14.8571 15.4743 15.6723 15.7188 16.6912ZM22.0769 15.713C23.3812 16.4059 23.5034 16.8542 22.7291 17.7509C21.6286 19.0551 19.5092 19.3404 19.5092 18.1992C19.5092 17.7916 19.3055 16.8542 19.0202 16.1613C18.4496 14.6533 19.713 14.4903 22.0769 15.713ZM18.1235 28.5108L18.5718 32.7903H16.0856C13.9255 32.7903 13.681 32.5865 14.1293 30.9562C14.4146 29.9373 14.8629 28.0217 15.1075 26.6767C16.2894 20.4408 17.3491 21.1337 18.1235 28.5108ZM24.9299 25.1279C26.5602 27.5733 25.6636 31.3638 23.3812 31.8121C22.24 32.0159 21.9547 31.5268 21.9547 29.3667C21.9547 27.8994 21.7101 25.8615 21.4248 24.8426C20.732 22.2342 23.1774 22.4379 24.9299 25.1279Z" fill="#392F2C"/>
</svg>
