<svg width="25" height="101" viewBox="0 0 25 101" fill="none" xmlns="http://www.w3.org/2000/svg">
<path d="M5.32797 2.59251C2.9098 5.90781 0.550608 16.1168 0.845507 21.8528C1.14041 26.6416 2.26102 29.0097 8.21798 37.4821C18.1856 51.5853 21.4884 94.7368 12.5825 94.7368C8.68981 94.7368 8.21798 93.7896 10.8721 91.4215C16.3572 86.5275 9.27961 80.0022 3.2047 84.2647C-3.51899 89.0008 1.14041 100.946 9.75145 100.999C27.6223 101.21 30.3944 65.3201 14.8237 35.2193C9.04369 24.063 7.92308 5.27632 13.0543 5.27632C16.77 5.27632 17.5368 12.8015 14.2339 16.5904C10.5182 20.7477 11.7568 25.2734 16.6521 25.2734C21.8423 25.2734 24.8503 17.4324 22.4911 9.95984C19.719 1.22428 9.51553 -3.14349 5.32797 2.59251Z" fill="#392F2C"/>
</svg>
