<svg width="25" height="148" viewBox="0 0 25 148" fill="none" xmlns="http://www.w3.org/2000/svg">
<path d="M9.34928 1.29909C6.34168 2.93498 5.37149 5.43697 5.46851 11.2107C5.46851 15.7335 6.9238 18.1393 9.54332 18.1393C12.745 18.1393 13.9092 15.5411 12.745 11.1145C11.4837 6.68794 12.4539 4.57089 14.6853 6.49548C17.4019 8.61253 18.6631 16.4071 18.7601 30.6491C18.7601 50.4724 17.0138 59.8067 10.4165 75.2035C-0.934758 101.57 -3.1662 125.532 4.49832 139.581C8.9612 147.761 16.6257 150.455 21.2826 145.547C23.5141 143.238 23.6111 142.564 23.4171 132.46C23.126 123.511 22.835 121.49 21.0886 119.084C17.6929 114.273 12.1628 116.197 10.9986 122.645C10.3195 126.205 13.5211 131.69 16.3347 131.69C18.178 131.69 18.3721 132.171 18.081 135.828C17.79 139.389 17.4989 139.87 15.4615 139.87C12.0658 139.87 9.83438 136.117 7.99101 126.975C6.82678 120.913 6.53572 116.39 7.02082 109.269C7.89399 95.7966 9.73736 88.8681 15.8496 76.9356C19.1482 70.2957 22.5439 61.3464 23.6111 56.0537C23.9022 54.5141 24.3873 46.3346 24.7753 37.8663C25.2604 24.1055 25.0664 21.6035 23.126 14.2901C20.6035 4.37843 19.9244 3.12744 16.3347 1.29909C12.939 -0.433044 12.6479 -0.433044 9.34928 1.29909Z" fill="#392F2C"/>
</svg>
