<svg width="25" height="98" viewBox="0 0 25 98" fill="none" xmlns="http://www.w3.org/2000/svg">
<path d="M8.92633 2.86952C3.06227 8.00102 0.367966 19.7302 4.27734 22.8579C10.564 27.9406 17.0092 21.9294 11.9904 15.6738C8.18672 10.9333 9.61311 6.04617 14.7904 6.04617C22.1865 6.04617 20.6545 19.3392 11.198 36.8352C-4.80931 66.4513 -3.38292 100.124 13.7338 97.338C23.7186 95.6764 27.6279 73.7331 18.0658 72.7068C12.2546 72.0715 10.1414 80.9661 15.6357 82.921C17.8017 83.654 17.6432 85.56 15.2659 87.5149C11.1452 90.9847 8.3452 87.2705 6.60183 76.079C4.75281 64.1054 6.70749 55.895 15.213 40.1584C22.5563 26.4744 26.2544 13.9633 24.6167 8.44087C22.028 -0.0627594 15.0545 -2.55521 8.92633 2.86952Z" fill="#392F2C"/>
</svg>
