<svg width="25" height="98" viewBox="0 0 25 98" fill="none" xmlns="http://www.w3.org/2000/svg">
<path d="M9.33231 2.35714C1.6371 6.16428 -1.69366 18.8857 0.833125 34.3929C2.09652 42.0071 3.93418 47.0214 13.0076 67.8214C19.0949 81.75 19.6692 86.3929 15.6493 90.2C11.3997 94.1929 8.06892 90.7571 11.9739 86.4857C14.271 83.9786 14.1562 81.0071 11.6294 79.15C8.75804 77.0143 6.1164 77.2 3.35991 79.4286C1.40739 81.0071 1.06283 82.1214 1.6371 86.2071C3.01535 95.4929 5.42728 98 12.7779 98C27.4792 98 29.0872 82.3071 16.683 60.1143C8.87289 46.1857 6.34611 38.0143 6.46096 26.5C6.46096 15.6357 8.41348 10.4357 12.5482 9.32143C15.9938 8.48571 16.5681 9.22857 14.3859 11.8286C12.2037 14.3357 11.9739 19.1643 13.9265 20.7429C15.879 22.3214 20.0137 22.1357 21.9662 20.1857C27.9386 14.8 23.1148 0.5 15.5344 0.5C14.1562 0.5 11.3997 1.33571 9.33231 2.35714Z" fill="#392F2C"/>
</svg>
